<?xml version="1.0" encoding="UTF-8"?>
<svg xmlns="http://www.w3.org/2000/svg" xmlns:xlink="http://www.w3.org/1999/xlink" viewBox="0 0 48 48" width="48px" height="48px">
<g id="surface559053">
<path style=" stroke:none;fill-rule:nonzero;fill:rgb(90.196079%,49.411765%,13.333334%);fill-opacity:1;" d="M 33.25 41.019531 L 14.75 41.019531 C 14.394531 41.019531 14.0625 40.832031 13.882812 40.519531 L 4.632812 24.5 C 4.355469 24.019531 4.519531 23.410156 5 23.132812 C 5.476562 22.859375 6.089844 23.019531 6.367188 23.5 L 15.328125 39.019531 L 32.671875 39.019531 L 41.347656 24 L 32.671875 8.980469 L 15.328125 8.980469 L 9.253906 19.5 C 8.976562 19.976562 8.363281 20.140625 7.886719 19.867188 C 7.40625 19.589844 7.242188 18.980469 7.519531 18.5 L 13.882812 7.480469 C 14.0625 7.167969 14.394531 6.980469 14.75 6.980469 L 33.25 6.980469 C 33.605469 6.980469 33.9375 7.167969 34.117188 7.480469 L 43.367188 23.5 C 43.546875 23.808594 43.546875 24.191406 43.367188 24.5 L 34.117188 40.519531 C 33.9375 40.832031 33.605469 41.019531 33.25 41.019531 Z M 33.25 41.019531 "/>
<path style=" stroke:none;fill-rule:nonzero;fill:rgb(90.196079%,49.411765%,13.333334%);fill-opacity:1;" d="M 42 25 L 6 25 C 5.445312 25 5 24.554688 5 24 C 5 23.445312 5.445312 23 6 23 L 42 23 C 42.554688 23 43 23.445312 43 24 C 43 24.554688 42.554688 25 42 25 Z M 42 25 "/>
<path style=" stroke:none;fill-rule:nonzero;fill:rgb(90.196079%,49.411765%,13.333334%);fill-opacity:1;" d="M 30.375 36.042969 L 17.625 36.042969 C 17.269531 36.042969 16.9375 35.851562 16.757812 35.542969 L 10.382812 24.5 C 10.203125 24.191406 10.203125 23.808594 10.382812 23.5 L 16.757812 12.457031 C 16.9375 12.148438 17.269531 11.957031 17.625 11.957031 L 30.375 11.957031 C 30.929688 11.957031 31.375 12.40625 31.375 12.957031 C 31.375 13.511719 30.929688 13.957031 30.375 13.957031 L 18.203125 13.957031 L 12.402344 24 L 18.203125 34.042969 L 29.796875 34.042969 L 35.597656 24 L 32.421875 18.5 C 32.144531 18.019531 32.308594 17.410156 32.785156 17.132812 C 33.261719 16.855469 33.875 17.019531 34.152344 17.5 L 37.617188 23.5 C 37.796875 23.808594 37.796875 24.191406 37.617188 24.5 L 31.242188 35.542969 C 31.0625 35.851562 30.730469 36.042969 30.375 36.042969 Z M 30.375 36.042969 "/>
<path style=" stroke:none;fill-rule:nonzero;fill:rgb(90.196079%,49.411765%,13.333334%);fill-opacity:1;" d="M 27.464844 31 C 27.292969 31 27.121094 30.957031 26.964844 30.867188 C 26.484375 30.589844 26.320312 29.976562 26.597656 29.5 L 29.773438 24 L 26.886719 19 L 21.113281 19 L 18.226562 24 L 21.402344 29.5 C 21.679688 29.980469 21.515625 30.589844 21.035156 30.867188 C 20.558594 31.140625 19.945312 30.976562 19.671875 30.5 L 16.207031 24.5 C 16.027344 24.191406 16.027344 23.808594 16.207031 23.5 L 19.671875 17.5 C 19.851562 17.191406 20.179688 17 20.535156 17 L 27.464844 17 C 27.820312 17 28.152344 17.191406 28.332031 17.5 L 31.796875 23.5 C 31.972656 23.808594 31.972656 24.191406 31.796875 24.5 L 28.332031 30.5 C 28.144531 30.820312 27.808594 31 27.464844 31 Z M 27.464844 31 "/>
<path style=" stroke:none;fill-rule:nonzero;fill:rgb(90.196079%,49.411765%,13.333334%);fill-opacity:1;" d="M 17.625 36.042969 C 17.453125 36.042969 17.28125 36 17.125 35.90625 C 16.644531 35.632812 16.480469 35.019531 16.757812 34.542969 L 32.382812 7.480469 C 32.660156 7 33.269531 6.835938 33.75 7.113281 C 34.230469 7.386719 34.394531 8 34.117188 8.480469 L 18.492188 35.542969 C 18.304688 35.863281 17.96875 36.042969 17.625 36.042969 Z M 17.625 36.042969 "/>
<path style=" stroke:none;fill-rule:nonzero;fill:rgb(90.196079%,49.411765%,13.333334%);fill-opacity:1;" d="M 33.25 41.019531 C 32.90625 41.019531 32.570312 40.84375 32.382812 40.519531 L 13.882812 8.476562 C 13.605469 8 13.769531 7.390625 14.25 7.113281 C 14.726562 6.835938 15.339844 7 15.617188 7.476562 L 34.117188 39.519531 C 34.390625 40 34.226562 40.609375 33.75 40.886719 C 33.59375 40.980469 33.421875 41.019531 33.25 41.019531 Z M 33.25 41.019531 "/>
</g>
</svg>
