<?xml version="1.0" encoding="UTF-8"?>
<svg xmlns="http://www.w3.org/2000/svg" xmlns:xlink="http://www.w3.org/1999/xlink" viewBox="0 0 48 48" width="48px" height="48px">
<g id="surface575735">
<path style=" stroke:none;fill-rule:nonzero;fill:rgb(94.509804%,76.862746%,5.882353%);fill-opacity:1;" d="M 42 38 L 24.675781 42 L 18.933594 42 L 6 38 L 6 9 C 6 7.894531 6.894531 7 8 7 L 40 7 C 41.105469 7 42 7.894531 42 9 Z M 42 38 "/>
<path style=" stroke:none;fill-rule:nonzero;fill:rgb(6.27451%,19.607843%,38.431373%);fill-opacity:1;" d="M 26.078125 29 L 19.890625 29 C 18.5 29 17.636719 27.488281 18.339844 26.289062 L 21.539062 20.828125 L 26.078125 27 Z M 27.320312 7 L 27.320312 5 L 20.980469 6 L 6 31.558594 L 6 39 C 6 40.101562 6.898438 41 8 41 L 20.519531 41 L 13.851562 29.988281 Z M 40 6 L 29.640625 6 L 22.710938 16.820312 L 22.710938 18.820312 L 28.371094 29 L 42 29 L 42 8 C 42 6.898438 41.101562 6 40 6 Z M 22.808594 42 L 40 41 C 41.101562 41 42 40.101562 42 39 L 42 30 L 16.699219 29 L 16.699219 31 Z M 18.089844 25.203125 L 20.429688 25.203125 L 20.429688 27.339844 L 18.089844 27.339844 Z M 18.089844 25.203125 "/>
<path style=" stroke:none;fill-rule:nonzero;fill:rgb(90.196079%,49.411765%,13.333334%);fill-opacity:1;" d="M 26.078125 27 L 19.890625 27 C 18.5 27 17.636719 25.488281 18.339844 24.289062 L 21.539062 18.828125 Z M 27.320312 5 L 20.980469 5 L 6 30.558594 L 6 40 L 20.519531 40 L 13.851562 27.988281 Z M 40 5 L 29.640625 5 L 22.710938 16.820312 L 28.371094 27 L 42 27 L 42 7 C 42 5.898438 41.101562 5 40 5 Z M 22.808594 40 L 42 40 L 42 29 L 16.699219 29 Z M 22.808594 40 "/>
<path style=" stroke:none;fill-rule:nonzero;fill:rgb(94.509804%,76.862746%,5.882353%);fill-opacity:1;" d="M 42 38 L 42 40 C 42 41.101562 41.101562 42 40 42 L 22.808594 42 L 22.808594 40 L 40 40 C 41.105469 40 42 39.105469 42 38 Z M 42 38 "/>
<path style=" stroke:none;fill-rule:nonzero;fill:rgb(94.509804%,76.862746%,5.882353%);fill-opacity:1;" d="M 6 38 C 6 39.105469 6.894531 40 8 40 L 20.519531 40 L 20.519531 42 L 8 42 C 6.898438 42 6 41.101562 6 40 Z M 6 38 "/>
</g>
</svg>
