<?xml version="1.0" encoding="UTF-8"?>
<svg xmlns="http://www.w3.org/2000/svg" xmlns:xlink="http://www.w3.org/1999/xlink" viewBox="0 0 50 50" width="50px" height="50px">
<g id="surface576435">
<path style=" stroke:none;fill-rule:nonzero;fill:rgb(93.333334%,24.313726%,32.941177%);fill-opacity:1;" d="M 6.5 13.5 C 5.949219 13.5 5.5 13.949219 5.5 14.5 C 5.5 15.050781 5.949219 15.5 6.5 15.5 C 7.050781 15.5 7.5 15.050781 7.5 14.5 C 7.5 13.949219 7.050781 13.5 6.5 13.5 Z M 6.5 13.5 "/>
<path style=" stroke:none;fill-rule:nonzero;fill:rgb(94.509804%,73.725492%,9.803922%);fill-opacity:1;" d="M 38.5 6 C 38.222656 6 38 6.222656 38 6.5 C 38 6.777344 38.222656 7 38.5 7 C 38.777344 7 39 6.777344 39 6.5 C 39 6.222656 38.777344 6 38.5 6 Z M 38.5 6 "/>
<path style=" stroke:none;fill-rule:nonzero;fill:rgb(98.823529%,87.843138%,63.529414%);fill-opacity:1;" d="M 25 6.5 C 14.78125 6.5 6.5 14.78125 6.5 25 C 6.5 35.21875 14.78125 43.5 25 43.5 C 35.21875 43.5 43.5 35.21875 43.5 25 C 43.5 14.78125 35.21875 6.5 25 6.5 Z M 25 6.5 "/>
<path style=" stroke:none;fill-rule:nonzero;fill:rgb(94.509804%,73.725492%,9.803922%);fill-opacity:1;" d="M 41.5 5.5 C 40.394531 5.5 39.5 6.394531 39.5 7.5 C 39.5 8.605469 40.394531 9.5 41.5 9.5 C 42.605469 9.5 43.5 8.605469 43.5 7.5 C 43.5 6.394531 42.605469 5.5 41.5 5.5 Z M 41.5 5.5 "/>
<path style=" stroke:none;fill-rule:nonzero;fill:rgb(93.333334%,24.313726%,32.941177%);fill-opacity:1;" d="M 43.5 11 C 42.949219 11 42.5 11.449219 42.5 12 C 42.5 12.550781 42.949219 13 43.5 13 C 44.050781 13 44.5 12.550781 44.5 12 C 44.5 11.449219 44.050781 11 43.5 11 Z M 43.5 11 "/>
<path style=" stroke:none;fill-rule:nonzero;fill:rgb(98.431373%,80.392158%,34.901962%);fill-opacity:1;" d="M 40.5 37 C 39.949219 37 39.5 37.449219 39.5 38 C 39.5 38.550781 39.949219 39 40.5 39 C 41.050781 39 41.5 38.550781 41.5 38 C 41.5 37.449219 41.050781 37 40.5 37 Z M 7.5 29.5 C 6.394531 29.5 5.5 30.394531 5.5 31.5 C 5.5 32.605469 6.394531 33.5 7.5 33.5 C 8.605469 33.5 9.5 32.605469 9.5 31.5 C 9.5 30.394531 8.605469 29.5 7.5 29.5 Z M 7.5 29.5 "/>
<path style=" stroke:none;fill-rule:nonzero;fill:rgb(93.333334%,24.313726%,32.941177%);fill-opacity:1;" d="M 12.5 42.5 C 11.949219 42.5 11.5 42.949219 11.5 43.5 C 11.5 44.050781 11.949219 44.5 12.5 44.5 C 13.050781 44.5 13.5 44.050781 13.5 43.5 C 13.5 42.949219 13.050781 42.5 12.5 42.5 Z M 12.5 42.5 "/>
<path style=" stroke:none;fill-rule:nonzero;fill:rgb(100%,100%,100%);fill-opacity:1;" d="M 9.25 25.5 C 8.558594 25.5 8 26.058594 8 26.75 C 8 27.441406 8.558594 28 9.25 28 C 9.941406 28 10.5 27.441406 10.5 26.75 C 10.5 26.058594 9.941406 25.5 9.25 25.5 Z M 9.25 25.5 "/>
<path style=" stroke:none;fill-rule:nonzero;fill:rgb(94.509804%,73.725492%,9.803922%);fill-opacity:1;" d="M 10.5 33 C 10.222656 33 10 33.222656 10 33.5 C 10 33.777344 10.222656 34 10.5 34 C 10.777344 34 11 33.777344 11 33.5 C 11 33.222656 10.777344 33 10.5 33 Z M 10.5 33 "/>
<path style=" stroke:none;fill-rule:nonzero;fill:rgb(100%,100%,100%);fill-opacity:1;" d="M 40 16.5 C 39.722656 16.5 39.5 16.722656 39.5 17 C 39.5 17.277344 39.722656 17.5 40 17.5 C 40.277344 17.5 40.5 17.277344 40.5 17 C 40.5 16.722656 40.277344 16.5 40 16.5 Z M 40 16.5 "/>
<path style=" stroke:none;fill-rule:nonzero;fill:rgb(90.196079%,49.411765%,13.333334%);fill-opacity:1;" d="M 17.5 36.148438 C 15.5 36.148438 13.851562 34.5 13.851562 32.5 L 13.851562 17.5 C 13.851562 15.5 15.5 13.851562 17.5 13.851562 L 32.5 13.851562 C 34.5 13.851562 36.148438 15.5 36.148438 17.5 L 36.148438 32.5 C 36.148438 34.5 34.5 36.148438 32.5 36.148438 Z M 17.5 36.148438 "/>
<path style=" stroke:none;fill-rule:nonzero;fill:rgb(27.843139%,16.862746%,16.078432%);fill-opacity:1;" d="M 32.5 14.199219 C 34.300781 14.199219 35.800781 15.699219 35.800781 17.5 L 35.800781 32.5 C 35.800781 34.300781 34.300781 35.800781 32.5 35.800781 L 17.5 35.800781 C 15.699219 35.800781 14.199219 34.300781 14.199219 32.5 L 14.199219 17.5 C 14.199219 15.699219 15.699219 14.199219 17.5 14.199219 L 32.5 14.199219 M 32.5 13.5 L 17.5 13.5 C 15.300781 13.5 13.5 15.300781 13.5 17.5 L 13.5 32.5 C 13.5 34.699219 15.300781 36.5 17.5 36.5 L 32.5 36.5 C 34.699219 36.5 36.5 34.699219 36.5 32.5 L 36.5 17.5 C 36.5 15.300781 34.699219 13.5 32.5 13.5 Z M 32.5 13.5 "/>
<path style=" stroke:none;fill-rule:nonzero;fill:rgb(99.215686%,98.823529%,93.333334%);fill-opacity:1;" d="M 34.40625 24.105469 L 34.40625 32.15625 C 34.40625 33.40625 33.40625 34.40625 32.15625 34.40625 L 18.15625 34.40625 C 16.90625 34.40625 15.90625 33.40625 15.90625 32.15625 L 15.90625 18.15625 C 15.90625 16.90625 16.90625 15.90625 18.15625 15.90625 L 32.15625 15.90625 C 33.40625 15.90625 34.40625 16.90625 34.40625 18.15625 L 34.40625 24.105469 "/>
<path style=" stroke:none;fill-rule:nonzero;fill:rgb(27.843139%,16.862746%,16.078432%);fill-opacity:1;" d="M 34.25 23.699219 C 34.101562 23.699219 34 23.601562 34 23.449219 L 34 21.5 C 34 21.351562 34.101562 21.25 34.25 21.25 C 34.398438 21.25 34.5 21.351562 34.5 21.5 L 34.5 23.449219 C 34.5 23.601562 34.398438 23.699219 34.25 23.699219 Z M 34.25 20.25 C 34.101562 20.25 34 20.148438 34 20 L 34 19 C 34 18.851562 34.101562 18.75 34.25 18.75 C 34.398438 18.75 34.5 18.851562 34.5 19 L 34.5 20 C 34.5 20.148438 34.398438 20.25 34.25 20.25 Z M 34.25 20.25 "/>
<path style=" stroke:none;fill-rule:nonzero;fill:rgb(27.843139%,16.862746%,16.078432%);fill-opacity:1;" d="M 32 34.5 L 18 34.5 C 16.601562 34.5 15.5 33.398438 15.5 32 L 15.5 18 C 15.5 16.601562 16.601562 15.5 18 15.5 L 30.699219 15.5 C 30.851562 15.5 30.949219 15.601562 30.949219 15.75 C 30.949219 15.898438 30.851562 16 30.699219 16 L 18 16 C 16.898438 16 16 16.898438 16 18 L 16 32 C 16 33.101562 16.898438 34 18 34 L 32 34 C 33.101562 34 34 33.101562 34 32 L 34 24.800781 C 34 24.648438 34.101562 24.550781 34.25 24.550781 C 34.398438 24.550781 34.5 24.648438 34.5 24.800781 L 34.5 32 C 34.5 33.398438 33.398438 34.5 32 34.5 Z M 32 34.5 "/>
<path style=" stroke:none;fill-rule:nonzero;fill:rgb(90.196079%,49.411765%,13.333334%);fill-opacity:1;" d="M 25 20.28125 C 22.394531 20.28125 20.28125 22.390625 20.28125 24.996094 C 20.28125 27.601562 22.390625 29.714844 24.996094 29.71875 C 24.996094 29.71875 25 29.71875 25 29.71875 C 27.605469 29.71875 29.71875 27.609375 29.71875 25.003906 C 29.722656 22.398438 27.609375 20.285156 25.003906 20.28125 C 25.003906 20.28125 25.003906 20.28125 25 20.28125 Z M 25 20.28125 "/>
<path style=" stroke:none;fill-rule:nonzero;fill:rgb(27.843139%,16.862746%,16.078432%);fill-opacity:1;" d="M 25 30 C 22.242188 30 20 27.757812 20 25 C 20 22.242188 22.242188 20 25 20 C 27.757812 20 30 22.242188 30 25 C 30 27.757812 27.757812 30 25 30 Z M 25 20.566406 C 22.554688 20.566406 20.566406 22.554688 20.566406 25 C 20.566406 27.445312 22.554688 29.433594 25 29.433594 C 27.445312 29.433594 29.433594 27.445312 29.433594 25 C 29.433594 22.554688 27.445312 20.566406 25 20.566406 Z M 25 20.566406 "/>
<path style=" stroke:none;fill-rule:nonzero;fill:rgb(27.843139%,16.862746%,16.078432%);fill-opacity:1;" d="M 26.980469 29.242188 C 26.976562 29.242188 26.976562 29.242188 26.972656 29.242188 C 26.878906 29.242188 26.808594 29.160156 26.8125 29.070312 C 26.941406 25.59375 23.851562 20.863281 23.316406 20.765625 C 23.226562 20.75 23.160156 20.664062 23.171875 20.574219 C 23.183594 20.484375 23.261719 20.417969 23.347656 20.429688 C 24.183594 20.511719 27.277344 25.660156 27.148438 29.082031 C 27.148438 29.171875 27.070312 29.242188 26.980469 29.242188 Z M 26.980469 29.242188 "/>
<path style=" stroke:none;fill-rule:nonzero;fill:rgb(27.843139%,16.862746%,16.078432%);fill-opacity:1;" d="M 21.785156 24.464844 C 21.191406 24.464844 20.746094 24.421875 20.539062 24.382812 C 20.472656 24.371094 20.375 24.351562 20.339844 24.25 C 20.308594 24.160156 20.355469 24.066406 20.445312 24.035156 C 20.492188 24.019531 20.539062 24.027344 20.578125 24.046875 C 21.046875 24.171875 25.933594 24.546875 28.335938 21.683594 C 28.394531 21.613281 28.503906 21.605469 28.574219 21.664062 C 28.644531 21.722656 28.65625 21.832031 28.59375 21.902344 C 26.785156 24.058594 23.601562 24.464844 21.785156 24.464844 Z M 21.585938 28.007812 C 21.546875 28.007812 21.507812 27.992188 21.476562 27.964844 C 21.40625 27.90625 21.398438 27.796875 21.460938 27.726562 C 23.929688 24.863281 29.257812 24.851562 29.679688 24.933594 C 29.742188 24.945312 29.8125 24.996094 29.828125 25.050781 C 29.859375 25.140625 29.8125 25.238281 29.722656 25.265625 C 29.683594 25.28125 29.640625 25.277344 29.605469 25.261719 C 29.148438 25.1875 24.019531 25.277344 21.714844 27.949219 C 21.683594 27.988281 21.636719 28.007812 21.585938 28.007812 Z M 21.585938 28.007812 "/>
</g>
</svg>
